<svg width="18" height="18" viewBox="0 0 18 18" fill="none" xmlns="http://www.w3.org/2000/svg">
    <path d="M6.225 14.25H8.25V9.7065L5.55 7.0905L2.85 9.7065V14.25H4.875V11.25H6.225V14.25ZM14.325 15.75H2.175C1.99598 15.75 1.82429 15.671 1.6977 15.5303C1.57112 15.3897 1.5 15.1989 1.5 15V9.36525C1.49999 9.25808 1.52065 9.15216 1.56059 9.05461C1.60052 8.95706 1.65881 8.87016 1.73152 8.79975L4.2 6.408V3C4.2 2.80109 4.27112 2.61032 4.3977 2.46967C4.52429 2.32902 4.69598 2.25 4.875 2.25H14.325C14.504 2.25 14.6757 2.32902 14.8023 2.46967C14.9289 2.61032 15 2.80109 15 3V15C15 15.1989 14.9289 15.3897 14.8023 15.5303C14.6757 15.671 14.504 15.75 14.325 15.75ZM10.95 8.25V9.75H12.3V8.25H10.95ZM10.95 11.25V12.75H12.3V11.25H10.95ZM10.95 5.25V6.75H12.3V5.25H10.95ZM8.25 5.25V6.75H9.6V5.25H8.25Z" fill="white"/>
</svg>
