<svg width="17" height="17" viewBox="0 0 18 18" fill="none" xmlns="http://www.w3.org/2000/svg">
    <path d="M12.375 15.375H5.625" stroke="white" stroke-width="2" stroke-linecap="round"/>
    <path d="M9.25 12.5V13.375H8.75V12.5H9.25Z" fill="black" stroke="white"/>
    <path d="M7.875 7.125H10.125M4.125 10.875C4.125 10.875 2.625 9.75 2.625 7.875V6.375C2.625 5.97718 2.78304 5.59564 3.06434 5.31434C3.34564 5.03304 3.72718 4.875 4.125 4.875C4.52282 4.875 4.90436 5.03304 5.18566 5.31434C5.46696 5.59564 5.625 5.97718 5.625 6.375V7.125M13.875 10.875C13.875 10.875 15.375 9.75 15.375 7.875V6.375C15.375 5.97718 15.217 5.59564 14.9357 5.31434C14.6544 5.03304 14.2728 4.875 13.875 4.875C13.4772 4.875 13.0956 5.03304 12.8143 5.31434C12.533 5.59564 12.375 5.97718 12.375 6.375V7.125" stroke="white" stroke-width="2" stroke-linecap="round"/>
    <path d="M12.375 8.52V5.625C12.375 5.22718 12.217 4.84564 11.9357 4.56434C11.6544 4.28304 11.2728 4.125 10.875 4.125H7.125C6.72718 4.125 6.34564 4.28304 6.06434 4.56434C5.78304 4.84564 5.625 5.22718 5.625 5.625V8.52C5.62501 9.01384 5.74693 9.50005 5.97995 9.93547C6.21296 10.3709 6.54986 10.742 6.96075 11.016L8.58375 12.0975C8.707 12.1797 8.85184 12.2236 9 12.2236C9.14816 12.2236 9.293 12.1797 9.41625 12.0975L11.0392 11.016C11.4502 10.742 11.7872 10.3707 12.0202 9.93514C12.2533 9.49958 12.3751 9.01397 12.375 8.52Z" stroke="white" stroke-width="2"/>
</svg>
