<svg width="18" height="18" viewBox="0 0 18 18" fill="none" xmlns="http://www.w3.org/2000/svg">
    <path d="M12.8077 2.21467C12.2859 1.69442 11.376 1.69649 10.8583 2.21812L9.62857 3.45388L8.10792 4.97598H4.94667C4.80524 4.97588 4.66721 5.01942 4.55139 5.10066C4.43557 5.1819 4.34757 5.2969 4.29939 5.42999L1.54209 13.0198C1.45041 13.2717 1.51313 13.5539 1.70201 13.7436L3.08066 15.1236C3.17334 15.2166 3.29069 15.2811 3.41883 15.3095C3.54697 15.3378 3.68055 15.3289 3.80376 15.2837L11.3863 12.5237C11.5193 12.4755 11.6342 12.3874 11.7154 12.2715C11.7965 12.1555 11.84 12.0174 11.8399 11.8758V8.71156L13.3613 7.18876L13.362 7.18807L14.5972 5.94817C14.8578 5.68736 15.0012 5.34029 15.0005 4.97184C15.0005 4.6027 14.8564 4.25564 14.5952 3.99551L12.8077 2.21467ZM10.6632 7.93809C10.5991 8.00205 10.5482 8.07808 10.5136 8.1618C10.4789 8.24552 10.4611 8.33528 10.4613 8.4259V11.3928L4.0857 13.7133L7.30554 10.4903C7.32346 10.491 7.34139 10.4959 7.35931 10.4959C7.56381 10.4959 7.76372 10.4352 7.93376 10.3214C8.1038 10.2077 8.23633 10.0461 8.31459 9.85695C8.39285 9.66783 8.41333 9.45973 8.37343 9.25897C8.33353 9.0582 8.23505 8.87379 8.09045 8.72904C7.94584 8.5843 7.7616 8.48573 7.56103 8.44579C7.36046 8.40586 7.15255 8.42635 6.96362 8.50469C6.77468 8.58302 6.61319 8.71568 6.49958 8.88588C6.38596 9.05608 6.32532 9.25618 6.32532 9.46088C6.32532 9.47882 6.33014 9.49676 6.33083 9.5147L3.11099 12.7376L5.42919 6.35595H8.3933C8.57666 6.35595 8.75175 6.2835 8.88065 6.15379L10.1166 4.91664L11.8992 6.70094L10.6632 7.93809ZM12.8732 5.72462L11.0906 3.94032L11.8344 3.19237L13.6218 4.97322L12.8732 5.72462Z" fill="white"/>
</svg>
