<svg width="18" height="18" viewBox="0 0 18 18" fill="none" xmlns="http://www.w3.org/2000/svg">
    <path d="M9 7.5C9.79565 7.5 10.5587 7.18393 11.1213 6.62132C11.6839 6.05871 12 5.29565 12 4.5C12 3.70435 11.6839 2.94129 11.1213 2.37868C10.5587 1.81607 9.79565 1.5 9 1.5C8.20435 1.5 7.44129 1.81607 6.87868 2.37868C6.31607 2.94129 6 3.70435 6 4.5C6 5.29565 6.31607 6.05871 6.87868 6.62132C7.44129 7.18393 8.20435 7.5 9 7.5ZM4.125 9.75C4.62228 9.75 5.09919 9.55246 5.45083 9.20083C5.80246 8.84919 6 8.37228 6 7.875C6 7.37772 5.80246 6.90081 5.45083 6.54917C5.09919 6.19754 4.62228 6 4.125 6C3.62772 6 3.15081 6.19754 2.79917 6.54917C2.44754 6.90081 2.25 7.37772 2.25 7.875C2.25 8.37228 2.44754 8.84919 2.79917 9.20083C3.15081 9.55246 3.62772 9.75 4.125 9.75ZM15.75 7.875C15.75 8.37228 15.5525 8.84919 15.2008 9.20083C14.8492 9.55246 14.3723 9.75 13.875 9.75C13.3777 9.75 12.9008 9.55246 12.5492 9.20083C12.1975 8.84919 12 8.37228 12 7.875C12 7.37772 12.1975 6.90081 12.5492 6.54917C12.9008 6.19754 13.3777 6 13.875 6C14.3723 6 14.8492 6.19754 15.2008 6.54917C15.5525 6.90081 15.75 7.37772 15.75 7.875ZM9 8.25C9.99456 8.25 10.9484 8.64509 11.6517 9.34835C12.3549 10.0516 12.75 11.0054 12.75 12V16.5H5.25V12C5.25 11.0054 5.64509 10.0516 6.34835 9.34835C7.05161 8.64509 8.00544 8.25 9 8.25ZM3.75 12C3.75 11.4802 3.825 10.9785 3.966 10.5045L3.8385 10.515C3.19566 10.5856 2.6015 10.891 2.16995 11.3726C1.7384 11.8543 1.49983 12.4783 1.5 13.125V16.5H3.75V12ZM16.5 16.5V13.125C16.5001 12.4563 16.2449 11.8127 15.7867 11.3257C15.3284 10.8387 14.7015 10.545 14.034 10.5045C14.1742 10.9785 14.25 11.4802 14.25 12V16.5H16.5Z" fill="white"/>
</svg>
