<svg width="27" height="27" viewBox="0 0 27 27" fill="none" xmlns="http://www.w3.org/2000/svg">
<path d="M4.99499 4.99505C5.31139 4.67903 5.7403 4.50153 6.18749 4.50153C6.63468 4.50153 7.06358 4.67903 7.37999 4.99505L13.5 11.1128L19.62 4.99505C19.7766 4.83845 19.9625 4.71422 20.1671 4.62947C20.3717 4.54472 20.591 4.5011 20.8125 4.5011C21.034 4.5011 21.2533 4.54472 21.4579 4.62947C21.6625 4.71422 21.8484 4.83845 22.005 4.99505C22.1616 5.15165 22.2858 5.33756 22.3706 5.54217C22.4553 5.74678 22.4989 5.96608 22.4989 6.18755C22.4989 6.40902 22.4553 6.62832 22.3706 6.83292C22.2858 7.03753 22.1616 7.22345 22.005 7.38005L15.8872 13.5L22.005 19.62C22.3213 19.9363 22.4989 20.3653 22.4989 20.8125C22.4989 21.2598 22.3213 21.6888 22.005 22.005C21.6887 22.3213 21.2598 22.499 20.8125 22.499C20.3652 22.499 19.9363 22.3213 19.62 22.005L13.5 15.8873L7.37999 22.005C7.06372 22.3213 6.63476 22.499 6.18749 22.499C5.74021 22.499 5.31126 22.3213 4.99499 22.005C4.67872 21.6888 4.50104 21.2598 4.50104 20.8125C4.50104 20.3653 4.67872 19.9363 4.99499 19.62L11.1127 13.5L4.99499 7.38005C4.67897 7.06364 4.50147 6.63474 4.50147 6.18755C4.50147 5.74036 4.67897 5.31146 4.99499 4.99505Z" fill="white"/>
</svg>
