<svg width="56" height="56" viewBox="0 0 56 56" fill="none" xmlns="http://www.w3.org/2000/svg">
    <path d="M56 39.732C56 49.924 49.924 56 39.732 56H36.4C34.86 56 33.6 54.74 33.6 53.2V37.044C33.6 36.288 34.216 35.644 34.972 35.644L39.9 35.56C40.292 35.532 40.628 35.252 40.712 34.86L41.692 29.512C41.776 29.008 41.384 28.532 40.852 28.532L34.888 28.616C34.104 28.616 33.488 28 33.46 27.244L33.348 20.384C33.348 19.936 33.712 19.544 34.188 19.544L40.908 19.432C41.384 19.432 41.748 19.068 41.748 18.592L41.636 11.872C41.636 11.396 41.272 11.032 40.796 11.032L33.236 11.144C28.588 11.228 24.892 15.036 24.976 19.684L25.116 27.384C25.144 28.168 24.528 28.784 23.744 28.812L20.384 28.868C19.908 28.868 19.544 29.232 19.544 29.708L19.628 35.028C19.628 35.504 19.992 35.868 20.468 35.868L23.828 35.812C24.612 35.812 25.228 36.428 25.256 37.184L25.508 53.144C25.536 54.712 24.276 56 22.708 56H16.268C6.076 56 0 49.924 0 39.704V16.268C0 6.076 6.076 0 16.268 0H39.732C49.924 0 56 6.076 56 16.268V39.732Z" fill="white"/>
</svg>
