<svg width="56" height="56" viewBox="0 0 56 56" fill="none" xmlns="http://www.w3.org/2000/svg">
    <path d="M40.8333 32.6667C40.1502 35.043 38.7964 37.1719 36.9341 38.7984C35.0718 40.4248 32.78 41.4797 30.3333 41.8367C28.42 42.1143 26.4704 42.0024 24.6015 41.5077C22.7325 41.0131 20.9828 40.1459 19.4573 38.9582C17.9319 37.7705 16.6621 36.2868 15.7243 34.5962C14.7865 32.9056 14.2 31.0429 14 29.12C13.845 27.1896 14.0923 25.2479 14.7262 23.4179C15.36 21.5879 16.3667 19.9093 17.6825 18.4882C18.9982 17.0672 20.5946 15.9346 22.3705 15.162C24.1464 14.3895 26.0633 13.9938 28 14C29.8147 14.0026 31.6124 14.351 33.2966 15.0267C33.5619 15.1458 33.862 15.1615 34.1382 15.0709C34.4144 14.9802 34.6469 14.7897 34.79 14.5367L38.15 8.35336C38.2223 8.21094 38.2658 8.05563 38.278 7.89636C38.2901 7.73709 38.2707 7.57699 38.2209 7.42524C38.171 7.27349 38.0917 7.13307 37.9874 7.01206C37.8831 6.89104 37.756 6.7918 37.6133 6.72003C34.0053 5.08649 30.0409 4.39822 26.0934 4.72005C22.146 5.04188 18.3454 6.36321 15.0496 8.5596C11.7539 10.756 9.07145 13.7551 7.25497 17.2746C5.43849 20.794 4.54775 24.7179 4.66665 28.6767C4.89659 34.5564 7.31352 40.1385 11.444 44.3294C15.5745 48.5203 21.1208 51.0181 26.9966 51.3334C33.1518 51.6063 39.1651 49.4337 43.7244 45.2897C48.2837 41.1457 51.019 35.3665 51.3333 29.2134C51.3333 28.7467 51.3333 26.0634 51.3333 24.5467C51.3273 24.2391 51.2025 23.9459 50.985 23.7283C50.7675 23.5108 50.4742 23.386 50.1666 23.38H29.1666C28.8572 23.38 28.5605 23.5029 28.3417 23.7217C28.1229 23.9405 28 24.2373 28 24.5467V31.5467C28 31.8561 28.1229 32.1529 28.3417 32.3716C28.5605 32.5904 28.8572 32.7134 29.1666 32.7134H40.8333" fill="white"/>
</svg>
