<svg width="17" height="17" viewBox="0 0 18 18" fill="none" xmlns="http://www.w3.org/2000/svg">
    <path fill-rule="evenodd" clip-rule="evenodd" d="M9 15.75V11.25H10.125V15.75H15.75V5.62501H16.875V15.75C16.875 16.0484 16.7565 16.3345 16.5455 16.5455C16.3345 16.7565 16.0484 16.875 15.75 16.875H2.25C1.95163 16.875 1.66548 16.7565 1.4545 16.5455C1.24353 16.3345 1.125 16.0484 1.125 15.75V13.5H2.25V15.75H9ZM14.4596 4.33576L11.0858 7.71076C11.2662 8.08642 11.3013 8.51558 11.1842 8.91556C11.0671 9.31554 10.8062 9.65805 10.4516 9.8771C10.097 10.0961 9.67397 10.1762 9.26388 10.102C8.85379 10.0277 8.48569 9.80426 8.2305 9.47476L5.17725 10.4918L4.5 10.7179C4.4929 11.1159 4.3453 11.4986 4.08329 11.7984C3.82128 12.0981 3.46174 12.2956 3.06821 12.3558C2.67469 12.4161 2.27253 12.3353 1.93283 12.1277C1.59313 11.9201 1.33776 11.5991 1.21187 11.2214C1.08597 10.8437 1.09766 10.4337 1.24487 10.0638C1.39207 9.69392 1.66532 9.38798 2.01629 9.20008C2.36727 9.01218 2.77338 8.95442 3.16283 9.037C3.55228 9.11959 3.89999 9.3372 4.1445 9.65138L7.875 8.40713C7.88002 8.12468 7.95587 7.848 8.0956 7.60247C8.23532 7.35695 8.43445 7.15043 8.67472 7.00185C8.915 6.85328 9.18873 6.7674 9.47081 6.75209C9.7529 6.73679 10.0343 6.79255 10.2892 6.91426L13.6642 3.53926C13.4927 3.18005 13.4536 2.77175 13.554 2.38652C13.6543 2.0013 13.8876 1.66395 14.2126 1.43411C14.5377 1.20427 14.9335 1.09673 15.3301 1.13051C15.7268 1.16428 16.0987 1.33719 16.3802 1.61868C16.6617 1.90017 16.8346 2.2721 16.8684 2.66875C16.9021 3.0654 16.7946 3.46121 16.5648 3.78624C16.3349 4.11126 15.9976 4.34457 15.6124 4.44492C15.2271 4.54528 14.8188 4.50621 14.4596 4.33463" fill="white"/>
</svg>
