<svg width="17" height="17" viewBox="0 0 18 18" fill="none" xmlns="http://www.w3.org/2000/svg">
    <path d="M15.5012 2H11.0012C10.9151 1.99999 10.8301 2.01977 10.7528 2.0578C10.6755 2.09584 10.608 2.15112 10.5555 2.21937L6.05546 8.07008L5.37624 7.39227C5.27175 7.28767 5.14768 7.20469 5.01111 7.14807C4.87453 7.09146 4.72814 7.06232 4.5803 7.06232C4.43246 7.06232 4.28606 7.09146 4.14949 7.14807C4.01292 7.20469 3.88884 7.28767 3.78436 7.39227L2.8921 8.28523C2.7876 8.3897 2.70471 8.51373 2.64816 8.65024C2.59161 8.78675 2.5625 8.93306 2.5625 9.08082C2.5625 9.22858 2.59161 9.37489 2.64816 9.5114C2.70471 9.64791 2.7876 9.77194 2.8921 9.87641L4.29835 11.2827L2.3296 13.2514C2.2251 13.3559 2.14221 13.4799 2.08566 13.6164C2.02911 13.7529 2 13.8992 2 14.047C2 14.1948 2.02911 14.3411 2.08566 14.4776C2.14221 14.6141 2.2251 14.7381 2.3296 14.8426L3.22186 15.7341C3.43282 15.945 3.71885 16.0634 4.0171 16.0634C4.31534 16.0634 4.60137 15.945 4.81233 15.7341L6.78108 13.7654L8.18733 15.1716C8.29181 15.2762 8.41589 15.3592 8.55246 15.4158C8.68903 15.4724 8.83543 15.5016 8.98327 15.5016C9.13111 15.5016 9.2775 15.4724 9.41408 15.4158C9.55065 15.3592 9.67472 15.2762 9.7792 15.1716L10.6715 14.2787C10.776 14.1742 10.8589 14.0502 10.9154 13.9137C10.972 13.7772 11.0011 13.6308 11.0011 13.4831C11.0011 13.3353 10.972 13.189 10.9154 13.0525C10.8589 12.916 10.776 12.792 10.6715 12.6875L9.99366 12.0097L15.8444 7.50969C15.9128 7.457 15.9682 7.38925 16.0062 7.3117C16.0443 7.23415 16.064 7.14888 16.0637 7.0625V2.5625C16.0637 2.41332 16.0045 2.27024 15.899 2.16475C15.7935 2.05926 15.6504 2 15.5012 2ZM4.0185 14.9375L3.12624 14.0459L5.09499 12.0772L5.98655 12.9688L4.0185 14.9375ZM8.98327 14.375L3.68874 9.08117L4.58171 8.1875L9.87624 13.4827L8.98327 14.375ZM14.9387 6.78547L9.19139 11.2067L8.42217 10.4375L11.9617 6.89797C12.0672 6.79242 12.1264 6.6493 12.1263 6.5001C12.1262 6.3509 12.0669 6.20784 11.9614 6.10238C11.8558 5.99693 11.7127 5.93772 11.5635 5.93779C11.4143 5.93785 11.2712 5.99719 11.1658 6.10273L7.62624 9.64156L6.85772 8.87234L11.2783 3.125H14.9387V6.78547Z" fill="white"/>
</svg>
