<svg width="17" height="17" viewBox="0 0 18 18" fill="none" xmlns="http://www.w3.org/2000/svg">
    <path d="M15.75 3H2.25C1.85218 3 1.47064 3.15804 1.18934 3.43934C0.908035 3.72064 0.75 4.10218 0.75 4.5V13.5C0.75 13.8978 0.908035 14.2794 1.18934 14.5607C1.47064 14.842 1.85218 15 2.25 15H15.75C16.1478 15 16.5294 14.842 16.8107 14.5607C17.092 14.2794 17.25 13.8978 17.25 13.5V4.5C17.25 4.10218 17.092 3.72064 16.8107 3.43934C16.5294 3.15804 16.1478 3 15.75 3ZM2.25 4.5H8.25V13.5H2.25V4.5ZM15.75 13.5H9V4.5H15.7523L15.75 13.5ZM15 10.125C15 9.91875 14.8313 9.75 14.625 9.75H13.875C13.6687 9.75 13.5 9.91875 13.5 10.125V12.375C13.5 12.5813 13.6687 12.75 13.875 12.75H14.625C14.8313 12.75 15 12.5813 15 12.375V10.125ZM12.75 5.625C12.75 5.41875 12.5813 5.25 12.375 5.25H10.125C9.91875 5.25 9.75 5.41875 9.75 5.625V9.375C9.75 9.58125 9.91875 9.75 10.125 9.75H12.375C12.5813 9.75 12.75 9.58125 12.75 9.375V5.625ZM13.875 7.5H14.625C14.8313 7.5 15 7.33125 15 7.125C15 6.91875 14.8313 6.75 14.625 6.75H13.875C13.6687 6.75 13.5 6.91875 13.5 7.125C13.5 7.33125 13.6687 7.5 13.875 7.5ZM13.875 9H14.625C14.8313 9 15 8.83125 15 8.625C15 8.41875 14.8313 8.25 14.625 8.25H13.875C13.6687 8.25 13.5 8.41875 13.5 8.625C13.5 8.83125 13.6687 9 13.875 9ZM10.125 11.25H12.375C12.5813 11.25 12.75 11.0813 12.75 10.875C12.75 10.6687 12.5813 10.5 12.375 10.5H10.125C9.91875 10.5 9.75 10.6687 9.75 10.875C9.75 11.0813 9.91875 11.25 10.125 11.25ZM12.375 12H10.125C9.91875 12 9.75 12.1687 9.75 12.375C9.75 12.5813 9.91875 12.75 10.125 12.75H12.375C12.5813 12.75 12.75 12.5813 12.75 12.375C12.75 12.1687 12.5813 12 12.375 12ZM13.875 6H14.625C14.8313 6 15 5.83125 15 5.625C15 5.41875 14.8313 5.25 14.625 5.25H13.875C13.6687 5.25 13.5 5.41875 13.5 5.625C13.5 5.83125 13.6687 6 13.875 6ZM7.5 5.625C7.5 5.41875 7.33125 5.25 7.125 5.25H3.375C3.16875 5.25 3 5.41875 3 5.625V7.875C3 8.08125 3.16875 8.25 3.375 8.25H7.125C7.33125 8.25 7.5 8.08125 7.5 7.875V5.625ZM7.12575 10.5H3.37575C3.17025 10.5 3.00075 10.6687 3.00075 10.875C3.00075 11.0813 3.17025 11.25 3.37575 11.25H7.12575C7.33125 11.25 7.5 11.0813 7.5 10.875C7.5 10.6687 7.33125 10.5 7.12575 10.5ZM7.12575 9H3.37575C3.17025 9 3.00075 9.16875 3.00075 9.375C3.00075 9.58125 3.17025 9.75 3.37575 9.75H7.12575C7.33125 9.75 7.5 9.58125 7.5 9.375C7.5 9.16875 7.33125 9 7.12575 9ZM7.12575 12H3.37575C3.17025 12 3.00075 12.1687 3.00075 12.375C3.00075 12.5813 3.17025 12.75 3.37575 12.75H7.12575C7.33125 12.75 7.5 12.5813 7.5 12.375C7.5 12.1687 7.33125 12 7.12575 12Z" fill="white"/>
</svg>
