<svg width="36" height="36" viewBox="0 0 36 36" fill="none" xmlns="http://www.w3.org/2000/svg">
    <path d="M29.3189 26.9311C29.6359 27.2481 29.814 27.6781 29.814 28.1264C29.814 28.5747 29.6359 29.0047 29.3189 29.3217C29.0019 29.6387 28.5719 29.8168 28.1236 29.8168C27.6753 29.8168 27.2453 29.6387 26.9283 29.3217L18 20.3906L9.06891 29.3189C8.75189 29.6359 8.32192 29.814 7.87359 29.814C7.42526 29.814 6.9953 29.6359 6.67828 29.3189C6.36126 29.0019 6.18317 28.5719 6.18317 28.1236C6.18317 27.6753 6.36126 27.2453 6.67828 26.9283L15.6094 18L6.68109 9.06891C6.36408 8.75189 6.18598 8.32193 6.18598 7.8736C6.18598 7.42527 6.36408 6.9953 6.68109 6.67828C6.99811 6.36127 7.42808 6.18317 7.87641 6.18317C8.32474 6.18317 8.7547 6.36127 9.07172 6.67828L18 15.6094L26.9311 6.67688C27.2481 6.35986 27.6781 6.18176 28.1264 6.18176C28.5747 6.18176 29.0047 6.35986 29.3217 6.67688C29.6387 6.99389 29.8168 7.42386 29.8168 7.87219C29.8168 8.32052 29.6387 8.75049 29.3217 9.0675L20.3906 18L29.3189 26.9311Z" fill="white"/>
</svg>
